<svg width="437" height="159" viewBox="0 0 437 159" fill="none" xmlns="http://www.w3.org/2000/svg">
<path d="M203.653 127.126V113.969C203.653 111.847 202.339 109.676 198.903 109.676C195.467 109.676 193.974 111.847 193.974 113.969V127.126H189.86V106.647H193.61V109.319H193.653C194.56 107.511 196.41 106.154 199.982 106.154C204.46 106.154 207.76 109.004 207.76 113.569V127.133H203.646L203.653 127.126Z" fill="#05718E"/>
<path d="M263.061 127.626C261.661 127.312 260.125 126.133 259.804 124.419C258.854 126.812 256.682 127.626 254.332 127.626C250.261 127.626 247.732 124.64 247.732 121.34C247.732 117.362 250.989 115.104 254.468 114.783L259.261 114.333V113.026C259.261 111.169 258.175 109.683 255.282 109.683C253.246 109.683 251.125 110.319 249.632 111.312L248.818 107.919C250.675 106.697 253.025 106.154 255.511 106.154C260.075 106.154 263.375 108.733 263.375 113.569V121.84C263.375 123.697 264.368 124.776 265.682 125.005L263.061 127.626ZM259.261 117.726L255.325 118.09C252.703 118.319 251.661 119.897 251.661 121.39C251.661 122.883 252.839 124.147 254.689 124.147C257.132 124.147 259.254 122.29 259.254 119.533V117.726H259.261Z" fill="#05718E"/>
<path d="M302.526 127.492H300.855L292.312 106.648H296.469L300.219 115.784C300.762 117.099 301.348 118.906 301.848 120.441H301.94C302.44 118.906 303.026 117.099 303.569 115.784L307.276 106.648H311.119L302.533 127.492H302.526Z" fill="#05718E"/>
<path d="M331.598 115.597L329.291 117.904H316.948C317.083 120.433 319.434 124.005 324.226 124.005C326.848 124.005 328.748 123.283 330.198 122.333L329.748 126.312C328.305 127.083 326.448 127.626 323.691 127.626C317.855 127.626 312.705 123.283 312.705 116.912C312.705 109.947 318.133 106.154 322.876 106.154C328.526 106.154 331.741 110.133 331.741 113.933C331.741 114.569 331.698 115.154 331.605 115.604M323.105 109.683C320.526 109.683 317.769 111.719 317.226 114.569H327.534C327.576 114.39 327.576 114.204 327.576 114.026C327.576 111.99 325.812 109.683 323.098 109.683" fill="#05718E"/>
<path d="M183.989 98.2842H179.603V127.127H183.989V98.2842Z" fill="#05718E"/>
<path d="M215.232 102.67C214.418 102.67 212.746 100.998 212.746 100.184C212.746 99.3268 214.418 97.6982 215.232 97.6982C216.089 97.6982 217.718 99.3268 217.718 100.184C217.718 100.998 216.089 102.67 215.232 102.67ZM213.153 106.648H217.31V127.127H213.153V106.648Z" fill="#05718E"/>
<path d="M235.261 109.948H228.754V120.841C228.754 123.191 229.975 124.005 232.147 124.005C232.868 124.005 233.504 123.913 234.004 123.734L233.64 126.991C233.097 127.263 232.19 127.355 231.375 127.355C227.668 127.355 224.682 125.234 224.682 121.255V109.955H220.661V106.655H224.682V102.498L228.754 100.376V106.662H235.99L235.268 109.962L235.261 109.948Z" fill="#05718E"/>
<path d="M241.404 102.67C240.59 102.67 238.918 100.998 238.918 100.184C238.918 99.3268 240.59 97.6982 241.404 97.6982C242.261 97.6982 243.89 99.3268 243.89 100.184C243.89 100.998 242.261 102.67 241.404 102.67ZM239.325 106.648H243.483V127.127H239.325V106.648Z" fill="#05718E"/>
<path d="M280.29 109.948H273.782V120.841C273.782 123.191 275.004 124.005 277.175 124.005C277.897 124.005 278.533 123.913 279.033 123.734L278.668 126.991C278.125 127.263 277.218 127.355 276.404 127.355C272.697 127.355 269.711 125.234 269.711 121.255V109.955H265.689V106.655H269.711V102.498L273.782 100.376V106.662H281.018L280.297 109.962L280.29 109.948Z" fill="#05718E"/>
<path d="M286.433 102.67C285.618 102.67 283.947 100.998 283.947 100.184C283.947 99.3268 285.618 97.6982 286.433 97.6982C287.29 97.6982 288.918 99.3268 288.918 100.184C288.918 100.998 287.29 102.67 286.433 102.67ZM284.354 106.648H288.511V127.127H284.354V106.648Z" fill="#05718E"/>
<path d="M225.253 79.5111V76.8468H225.21C224.303 78.6539 222.453 80.0111 218.882 80.0111C214.403 80.0111 211.103 77.1611 211.103 72.5967V59.0322H215.217V72.1896C215.217 74.3182 216.532 76.4825 219.967 76.4825C223.403 76.4825 224.896 74.311 224.896 72.1896V59.0322H229.01V79.5111H225.26H225.253Z" fill="#05718E"/>
<path d="M248.396 80.0111C246.996 79.6968 245.461 78.5182 245.139 76.8039C244.189 79.1968 242.018 80.0111 239.668 80.0111C235.596 80.0111 233.068 77.0253 233.068 73.7253C233.068 69.7467 236.325 67.4895 239.803 67.1681L244.596 66.718V65.4037C244.596 63.5466 243.511 62.0608 240.618 62.0608C238.582 62.0608 236.461 62.6966 234.968 63.6894L234.153 60.2965C236.011 59.0751 238.361 58.5322 240.846 58.5322C245.411 58.5322 248.711 61.1108 248.711 65.9466V74.2182C248.711 76.0682 249.704 77.1539 251.018 77.3825L248.396 80.004V80.0111ZM244.596 70.111L240.661 70.4753C238.039 70.7038 236.996 72.2824 236.996 73.7753C236.996 75.2682 238.175 76.5325 240.025 76.5325C242.468 76.5325 244.589 74.6824 244.589 71.9181V70.111H244.596Z" fill="#05718E"/>
<path d="M258.118 80.3257C256.761 79.9614 254.047 78.6113 254.047 74.6756V47.3252H258.161V74.1327C258.161 76.0327 259.654 77.297 260.918 77.5256L258.118 80.3257Z" fill="#05718E"/>
<path d="M266.797 55.0535C265.982 55.0535 264.311 53.3821 264.311 52.5678C264.311 51.7106 265.982 50.082 266.797 50.082C267.654 50.082 269.283 51.7106 269.283 52.5678C269.283 53.3821 267.654 55.0535 266.797 55.0535ZM264.718 59.0322H268.875V79.511H264.718V59.0322Z" fill="#05718E"/>
<path d="M286.826 62.3331H280.319V73.2261C280.319 75.5761 281.54 76.3904 283.712 76.3904C284.433 76.3904 285.069 76.2976 285.569 76.119L285.205 79.3762C284.662 79.6476 283.755 79.7405 282.94 79.7405C279.233 79.7405 276.247 77.619 276.247 73.6404V62.3402H272.226V59.0402H276.247V54.883L280.319 52.7544V59.0402H287.555L286.833 62.3402L286.826 62.3331Z" fill="#05718E"/>
<path d="M300.841 77.5253C297.769 85.0754 294.419 88.3755 290.398 90.1827L287.776 87.5612C291.39 85.9826 294.241 83.5826 296.641 77.7039L288.998 59.0322H293.248L296.998 68.3038C297.498 69.5681 298.219 71.3753 298.712 73.0038H298.805C299.391 71.4681 300.162 69.5681 300.662 68.3466L304.462 59.0322H308.398L300.848 77.5253H300.841Z" fill="#05718E"/>
<path d="M332.169 80.0118C326.069 80.0118 321.276 75.626 321.276 69.2973C321.276 62.9687 326.069 58.54 332.169 58.54C338.269 58.54 343.019 62.9258 343.019 69.2973C343.019 75.6688 338.276 80.0118 332.169 80.0118ZM332.169 62.2401C328.555 62.2401 325.433 65.0901 325.433 69.3831C325.433 73.676 328.555 76.4831 332.169 76.4831C335.783 76.4831 338.862 73.6331 338.862 69.3831C338.862 65.133 335.741 62.2401 332.169 62.2401Z" fill="#05718E"/>
<path d="M360.427 51.4403C359.477 51.0332 358.348 50.7618 357.441 50.7618C354.234 50.7618 352.648 52.7046 352.648 56.4118V59.0333H359.291L358.477 62.3333H352.648V79.5122H348.534V62.3333H345.055V59.0333H348.534V56.1833C348.534 50.3975 351.834 47.3188 357.169 47.3188C358.748 47.3188 360.155 47.5474 361.241 47.9974L360.427 51.4332V51.4403Z" fill="#05718E"/>
<path d="M373.798 79.5112V50.668H378.184V75.7612H390.891V79.5112H373.798Z" fill="#05718E"/>
<path d="M396.092 55.0535C395.277 55.0535 393.606 53.3821 393.606 52.5678C393.606 51.7106 395.277 50.082 396.092 50.082C396.949 50.082 398.577 51.7106 398.577 52.5678C398.577 53.3821 396.949 55.0535 396.092 55.0535ZM394.013 59.0322H398.17V79.511H394.013V59.0322Z" fill="#05718E"/>
<path d="M416.885 51.4403C415.935 51.0332 414.806 50.7618 413.899 50.7618C410.692 50.7618 409.106 52.7046 409.106 56.4118V59.0333H415.749L414.935 62.3333H409.106V79.5122H404.992V62.3333H401.513V59.0333H404.992V56.1833C404.992 50.3975 408.292 47.3188 413.628 47.3188C415.206 47.3188 416.613 47.5474 417.699 47.9974L416.885 51.4332V51.4403Z" fill="#05718E"/>
<path d="M436.007 67.983L433.7 70.2902H421.356C421.492 72.8188 423.842 76.3903 428.635 76.3903C431.257 76.3903 433.157 75.6689 434.6 74.7188L434.15 78.6975C432.707 79.4689 430.849 80.0118 428.092 80.0118C422.256 80.0118 417.106 75.6688 417.106 69.2973C417.106 62.3329 422.535 58.54 427.278 58.54C432.928 58.54 436.142 62.5187 436.142 66.3187C436.142 66.9544 436.1 67.5402 436.007 67.9902M427.507 62.0687C424.928 62.0687 422.171 64.1044 421.628 66.9544H431.935C431.978 66.7759 431.978 66.5902 431.978 66.4116C431.978 64.3758 430.214 62.0687 427.499 62.0687" fill="#05718E"/>
<path fill-rule="evenodd" clip-rule="evenodd" d="M192.653 75.5197C191.238 74.6197 189.824 73.9268 188.231 73.734C186.988 73.584 185.903 73.6554 184.91 73.9125C184.638 73.984 184.381 74.0625 184.124 74.1554C183.91 74.234 183.695 74.3197 183.481 74.4197C183.267 74.5125 183.06 74.6197 182.853 74.734C182.667 74.834 182.481 74.9411 182.288 75.0554C182.453 74.9126 182.61 74.784 182.774 74.6483C182.953 74.5054 183.124 74.3697 183.295 74.234C183.467 74.0983 183.638 73.9697 183.803 73.8483C183.995 73.7054 184.188 73.5625 184.381 73.434C185.338 72.7697 186.281 72.2482 187.288 71.8982C188.653 71.4196 190.124 71.2411 191.888 71.4554C193.667 71.6625 195.339 72.5911 197.024 73.7483C197.967 74.3983 198.917 75.1197 199.896 75.834C199.924 75.8554 199.946 75.8697 199.974 75.8911C200.189 76.0483 200.403 76.1983 200.617 76.3554C200.81 76.4912 201.003 76.6269 201.196 76.7626C201.281 76.8269 201.374 76.884 201.46 76.9483C203.103 78.0483 205.303 79.1198 207.324 79.6269C208.424 79.8983 209.474 80.0055 210.353 79.8555C210.589 79.8126 210.81 79.7555 211.01 79.6769C211.153 79.6412 211.303 79.5983 211.453 79.5555C209.753 81.3269 204.917 83.0198 198.224 79.334C198.096 79.2626 197.974 79.184 197.846 79.1126C197.581 78.9483 197.331 78.7769 197.01 78.584C196.903 78.5126 196.803 78.4483 196.696 78.3769C196.439 78.2055 196.189 78.034 195.946 77.8626C195.66 77.6555 195.374 77.4554 195.088 77.2554C194.831 77.0697 194.567 76.884 194.317 76.6983C193.746 76.2911 193.188 75.8983 192.631 75.5411" fill="#05718E"/>
<path fill-rule="evenodd" clip-rule="evenodd" d="M192.653 75.5197C191.238 74.6197 189.824 73.9268 188.231 73.734C186.988 73.584 185.903 73.6554 184.91 73.9125C184.638 73.984 184.381 74.0625 184.124 74.1554C183.91 74.234 183.695 74.3197 183.481 74.4197C183.267 74.5125 183.06 74.6197 182.853 74.734C182.667 74.834 182.481 74.9411 182.288 75.0554C182.453 74.9126 182.61 74.784 182.774 74.6483C182.953 74.5054 183.124 74.3697 183.295 74.234C183.467 74.0983 183.638 73.9697 183.803 73.8483C183.995 73.7054 184.188 73.5625 184.381 73.434C185.338 72.7697 186.281 72.2482 187.288 71.8982C188.653 71.4196 190.124 71.2411 191.888 71.4554C193.667 71.6625 195.339 72.5911 197.024 73.7483C197.967 74.3983 198.917 75.1197 199.896 75.834C199.924 75.8554 199.946 75.8697 199.974 75.8911C200.189 76.0483 200.403 76.1983 200.617 76.3554C200.81 76.4912 201.003 76.6269 201.196 76.7626C201.281 76.8269 201.374 76.884 201.46 76.9483C203.103 78.0483 205.303 79.1198 207.324 79.6269C208.424 79.8983 209.474 80.0055 210.353 79.8555C210.589 79.8126 210.81 79.7555 211.01 79.6769C211.153 79.6412 211.303 79.5983 211.453 79.5555C209.753 81.3269 204.917 83.0198 198.224 79.334C198.096 79.2626 197.974 79.184 197.846 79.1126C197.581 78.9483 197.331 78.7769 197.01 78.584C196.903 78.5126 196.803 78.4483 196.696 78.3769C196.439 78.2055 196.189 78.034 195.946 77.8626C195.66 77.6555 195.374 77.4554 195.088 77.2554C194.831 77.0697 194.567 76.884 194.317 76.6983C193.746 76.2911 193.188 75.8983 192.631 75.5411" fill="#05718E"/>
<path d="M188.267 79.8188C188.317 79.826 188.374 79.8331 188.424 79.8474C188.317 79.8331 188.26 79.826 188.26 79.826H188.267V79.8188Z" fill="#05718E"/>
<path d="M201.196 76.5399C203.203 75.0542 204.825 72.9828 205.796 70.4756C204.475 73.4613 202.682 75.3756 201.196 76.5399ZM188.974 79.7614C189.224 79.7829 189.474 79.7971 189.724 79.7971C189.11 79.7543 188.546 79.6757 188.024 79.5757C188.339 79.6543 188.653 79.7114 188.974 79.7614Z" fill="#05718E"/>
<path d="M191.532 49.9974C183.846 49.9974 176.246 55.6975 176.246 64.969C176.246 71.1977 179.603 75.7906 184.11 78.1478C184.11 78.1478 184.125 78.1549 184.146 78.1692C185.275 78.7549 186.475 79.2049 187.717 79.5049C187.817 79.5335 187.917 79.5549 188.025 79.5692C188.546 79.6692 189.11 79.7478 189.725 79.7907C189.753 79.7907 189.775 79.7907 189.796 79.7907C192.117 79.9549 195.075 79.6264 198.51 78.1406C198.51 78.1406 199.668 77.7263 201.16 76.5549C201.175 76.5549 201.182 76.5335 201.196 76.5263C202.682 75.362 204.475 73.4477 205.796 70.462C206.175 69.4977 206.461 68.4619 206.625 67.3762C206.746 66.5976 206.811 65.7905 206.811 64.9619C206.811 55.6903 199.218 49.9902 191.532 49.9902M191.532 76.262C186.196 76.262 180.682 72.1905 180.682 65.0476C180.682 57.9046 186.196 53.8831 191.532 53.8831C196.868 53.8831 202.382 57.9046 202.382 65.0476C202.382 72.1905 196.775 76.262 191.532 76.262Z" fill="#05718E"/>
<path d="M184.146 78.1694C185.275 78.7552 186.475 79.2052 187.718 79.5052C185.625 79.0623 184.368 78.3123 184.146 78.1694Z" fill="#05718E"/>
<path fill-rule="evenodd" clip-rule="evenodd" d="M33.4078 100.262C32.8649 99.2979 32.3506 98.3193 31.872 97.3265C31.6649 96.8907 31.4577 96.4479 31.2649 96.005C30.8149 94.9978 30.4006 93.9693 30.0149 92.9335C29.872 92.5478 29.7434 92.155 29.6077 91.7621C29.2577 90.7192 28.9363 89.6549 28.6577 88.5835C28.4648 87.8477 28.2863 87.0977 28.122 86.3477L18.979 74.9404L1.78589 87.8906C2.10732 89.9621 2.52161 92.0049 3.02162 94.0193C3.27877 95.0978 3.56449 96.1622 3.87878 97.2193C4.27164 98.5908 4.7145 99.9408 5.18593 101.269C5.55737 102.312 5.94309 103.348 6.36452 104.369C6.91453 105.734 7.51454 107.091 8.14312 108.419C8.6217 109.412 9.12171 110.398 9.64314 111.377C12.636 117.02 16.3432 122.241 20.6219 126.92C21.3719 126.291 22.1076 125.677 22.8505 125.077C23.429 124.605 24.0148 124.141 24.5791 123.691C24.8005 123.52 25.0219 123.348 25.2291 123.177C25.8219 122.72 26.4077 122.27 26.9862 121.827C27.172 121.684 27.3648 121.548 27.5505 121.405C27.7077 121.291 27.8577 121.177 28.0077 121.062C25.4934 118.255 23.529 115.198 22.0147 111.948L28.5863 108.684C30.2863 111.434 32.2149 114.098 34.6149 116.605C34.7078 116.541 34.8078 116.484 34.9078 116.427C35.8578 115.855 36.8149 115.312 37.7792 114.805C39.515 113.884 41.265 113.062 43.0579 112.355C39.2436 108.869 35.9721 104.784 33.4078 100.262ZM24.0791 89.5549C24.3719 90.6264 24.6933 91.6835 25.0362 92.7335L21.8647 93.405C21.5219 92.355 21.2004 91.2978 20.9147 90.2264L24.0791 89.5549ZM17.7647 90.8907C18.0504 91.9621 18.3647 93.0264 18.7075 94.0764L15.5289 94.7478C15.2004 93.6978 14.8861 92.6335 14.5932 91.5621L17.7647 90.8907ZM9.31456 96.0693C9.00742 95.0121 8.72884 93.9407 8.46455 92.8621L11.436 92.2335C11.6932 93.3121 11.986 94.3764 12.3003 95.4336L9.31456 96.0693ZM10.4217 99.5122L13.3003 98.5479C13.6575 99.5908 14.0503 100.627 14.4646 101.648L11.5789 102.619C11.1646 101.591 10.7789 100.562 10.4217 99.5122ZM14.5361 109.084C14.0289 108.105 13.5432 107.112 13.0789 106.112L15.8361 104.819C16.3004 105.827 16.7861 106.812 17.3004 107.791L14.5361 109.084ZM16.4718 97.4765L19.5361 96.4479C19.929 97.4907 20.3361 98.5122 20.7719 99.5265L17.7004 100.562C17.2718 99.5479 16.8575 98.5193 16.4718 97.4765ZM20.4933 106.298C19.9647 105.327 19.4576 104.348 18.979 103.355L21.9076 101.984C22.3862 102.977 22.8933 103.962 23.4219 104.927L20.4933 106.298ZM22.5576 95.4407L25.6219 94.4121C25.9934 95.4479 26.4005 96.4764 26.8362 97.4907L23.7648 98.5265C23.3362 97.505 22.9362 96.4764 22.5576 95.4407ZM26.1719 103.641C25.6577 102.669 25.1719 101.677 24.7076 100.669L27.6362 99.3051C28.0934 100.312 28.5863 101.298 29.1006 102.269L26.1719 103.641Z" fill="#F8991D"/>
<path fill-rule="evenodd" clip-rule="evenodd" d="M16.9864 64.6474L14.0006 63.8545C14.0006 63.8545 13.9935 63.8902 13.9863 63.9116L16.9864 64.7188C16.9864 64.7188 16.9864 64.6759 17.0007 64.6545H16.9864V64.6474Z" fill="#239ED4"/>
<path fill-rule="evenodd" clip-rule="evenodd" d="M36.5081 27.4465V12.0605C36.5081 12.0605 13.6863 25.4393 5.15763 51.0182C4.35047 53.4326 0.300416 64.8327 0.914711 78.6686C1.01471 81.1401 1.15043 83.0187 1.30757 84.5687L19.4721 70.7542L27.2365 80.3686C27.1079 78.9615 27.0508 77.5329 27.0508 76.0829C27.0508 60.8612 33.9866 47.2468 44.8725 38.2323L45.2439 28.5251L36.5081 27.4465ZM34.0937 34.518C33.308 35.2894 32.5437 36.0895 31.8009 36.9037L29.608 34.7109L31.908 32.318L34.0937 34.518ZM25.9222 44.4681C25.3079 45.3682 24.7293 46.2825 24.1722 47.2182L24.1507 47.2039L21.465 45.6967L21.4436 45.6824C22.0079 44.7324 22.5936 43.8038 23.215 42.8824L25.9222 44.3967C25.9222 44.3967 25.9008 44.4324 25.8865 44.4467L25.9222 44.4681ZM22.6793 49.8325C22.6793 49.8325 22.6579 49.8682 22.6507 49.8896C22.1507 50.8397 21.6579 51.8111 21.2007 52.7968C21.1936 52.8183 21.1793 52.8397 21.1721 52.8611H21.1507L18.3292 51.6182C18.7935 50.6182 19.2935 49.6254 19.8078 48.6539L22.6364 49.8825C22.6364 49.8825 22.6579 49.8468 22.665 49.8254H22.6793V49.8325ZM25.2365 39.9895C25.9008 39.1038 26.5794 38.2323 27.2794 37.3823L29.7365 39.2824C29.0294 40.1324 28.3508 41.0038 27.6937 41.8895L25.2365 39.9895ZM27.0151 27.4179L30.058 30.4679C29.2723 31.2394 28.508 32.0323 27.7579 32.8465L24.7436 29.8251C25.4793 29.0036 26.2365 28.1965 27.0151 27.4179ZM21.965 33.2608L25.215 35.7752C24.5079 36.6252 23.8293 37.4966 23.165 38.3823L19.9578 35.8966C20.6007 34.9966 21.265 34.118 21.965 33.2608ZM17.5935 39.7324L20.915 41.5967C20.3007 42.5181 19.715 43.4538 19.1507 44.4039L15.8792 42.5681C16.4292 41.6038 17.0006 40.6609 17.5935 39.7324ZM14.1435 46.1182L17.3935 47.5325C16.8864 48.5111 16.3935 49.4968 15.9221 50.5039L12.7292 49.1182C13.172 48.1039 13.6435 47.1039 14.1435 46.1182ZM11.4577 63.1684L8.62196 62.4112C8.84339 61.3255 9.09339 60.2469 9.37911 59.1826L12.3292 59.9755L11.4577 63.1684ZM10.3006 55.9754C10.6363 54.9183 10.9934 53.8754 11.3863 52.8468L14.472 53.854C14.0506 54.8754 13.6649 55.9112 13.3006 56.954L10.3006 55.9754ZM17.8578 61.5255C17.5364 62.5541 17.2649 63.6041 17.0006 64.6541C16.9935 64.6756 16.9935 64.697 16.9864 64.7184L13.9863 63.9113C13.9863 63.9113 13.9935 63.8756 14.0006 63.8541H13.9863C14.122 63.3041 14.2578 62.7684 14.4078 62.2398C14.4935 61.9184 14.5863 61.5969 14.6863 61.2827C14.6863 61.2612 14.6935 61.247 14.7006 61.2255C14.722 61.1541 14.7435 61.0827 14.7649 61.0112C14.7935 60.9112 14.822 60.8184 14.8506 60.7184C14.8506 60.6969 14.8578 60.6755 14.8649 60.6541H14.872L17.8578 61.4541H17.8792L17.8578 61.5255ZM18.7721 58.7398C18.7721 58.7398 18.7578 58.7755 18.7507 58.7969H18.7221L15.8006 57.8326C16.1649 56.7897 16.5506 55.754 16.9721 54.7326L19.9007 55.6969C19.9007 55.6969 19.915 55.6612 19.9221 55.6397H19.9507C19.9507 55.6397 19.9364 55.6826 19.9293 55.704C19.5007 56.704 19.1221 57.7183 18.7721 58.7398ZM22.8007 66.2613L19.5435 65.3899C19.8007 64.3113 20.0936 63.247 20.415 62.197L23.5365 63.0327C23.2579 64.0827 23.0222 65.1613 22.8007 66.2613ZM24.5436 60.6327L21.2293 59.5469C21.5936 58.5041 21.9864 57.4683 22.415 56.454L25.6151 57.4969C25.2293 58.5183 24.8722 59.5612 24.5436 60.6327ZM26.7436 55.2112L23.5722 53.8326C24.0436 52.8325 24.5365 51.8468 25.065 50.8754L28.1365 52.2111C27.6508 53.1825 27.1794 54.1826 26.7436 55.2112ZM29.2651 50.0682L26.4222 48.4753C26.9936 47.5253 27.5865 46.5967 28.2079 45.6824L30.958 47.2182C30.3723 48.1396 29.808 49.0896 29.2651 50.0682ZM32.3794 45.5253L29.758 43.4896C30.4151 42.6038 31.0937 41.7324 31.8009 40.8824L34.3366 42.8538C33.658 43.711 33.008 44.6039 32.3794 45.5253ZM35.9438 41.061L33.6437 38.7538C34.3866 37.9323 35.1509 37.1395 35.9366 36.3609L38.1581 38.5895C37.4152 39.3824 36.6652 40.2038 35.9438 41.061Z" fill="#03B2E2"/>
<path fill-rule="evenodd" clip-rule="evenodd" d="M17.8578 61.4546L17.8363 61.5189C17.5221 62.5547 17.2435 63.5975 16.9863 64.6475H17.0006C17.2649 63.6047 17.5363 62.5547 17.8578 61.5261L17.8792 61.4618H17.8578V61.4546ZM19.9221 55.6403C19.9221 55.6403 19.9078 55.676 19.9007 55.6974C19.4864 56.6903 19.1006 57.7117 18.7435 58.7332H18.7721C19.1221 57.7189 19.5007 56.7046 19.9292 55.7046C19.9364 55.6831 19.9435 55.6689 19.9507 55.6474H19.9221V55.6403ZM22.665 49.8259C22.665 49.8259 22.6435 49.8616 22.6364 49.8831C22.1221 50.8331 21.6364 51.8117 21.1792 52.7902H21.2007C21.6578 51.8117 22.1507 50.8402 22.6507 49.8902C22.6578 49.8688 22.6721 49.8545 22.6793 49.8331H22.665V49.8259ZM25.8865 44.4473C25.2864 45.3544 24.7079 46.2687 24.1507 47.2044L24.1721 47.2187C24.7293 46.283 25.3079 45.3687 25.9222 44.4687L25.8865 44.4473Z" fill="#239ED4"/>
<path fill-rule="evenodd" clip-rule="evenodd" d="M94.3015 147.727C93.7444 147.391 93.1872 147.048 92.6444 146.705C91.9158 146.248 91.1872 145.784 90.4729 145.312C91.9372 146.17 93.0801 146.963 94.3015 147.727Z" fill="#EB8123"/>
<path fill-rule="evenodd" clip-rule="evenodd" d="M88.3801 147.563C89.5087 148.313 90.6587 149.048 91.8301 149.77C86.7801 150.841 81.5514 151.398 76.1799 151.398C56.4225 151.398 38.4222 143.77 24.9863 131.298C25.8578 130.784 26.7435 130.291 27.6364 129.834C28.6292 129.334 29.6293 128.869 30.6507 128.448C31.6793 128.027 32.7293 127.648 33.8079 127.319C35.0936 126.927 36.4008 126.598 37.7651 126.348C41.3794 125.684 45.3009 125.555 49.6652 126.091C59.5868 127.312 67.8869 132.969 76.8013 139.405C78.1942 140.412 79.6014 141.434 81.0371 142.462C81.7586 142.984 82.4871 143.498 83.2229 144.02C83.7014 144.355 84.18 144.691 84.6586 145.027C85.88 145.877 87.1158 146.72 88.3801 147.555" fill="#3AAF5E"/>
<path fill-rule="evenodd" clip-rule="evenodd" d="M105.88 104.904C109.137 99.2755 113.216 92.4397 115.273 85.8968C116.709 81.3396 118.23 76.0609 117.516 69.2608L115.044 67.1822C115.044 67.1822 117.516 63.625 117.516 56.3535C117.516 56.3535 125.516 68.9466 121.087 86.0897C118.666 95.5041 116.609 98.6327 116.244 104.868C115.994 109.261 117.695 112.761 119.523 115.411C123.952 121.833 134.223 122.69 136.602 121.04C131.452 127.94 125.152 133.933 117.987 138.726C117.095 138.183 116.209 137.626 115.337 137.062C114.402 136.462 113.473 135.847 112.559 135.226C111.68 134.633 110.802 134.026 109.937 133.419C108.966 132.74 108.002 132.047 107.044 131.362C106.53 130.983 106.009 130.605 105.494 130.233C102.294 127.905 99.1657 125.562 96.0442 123.333C84.3798 115.419 69.3224 104.933 51.0579 110.976C53.8008 108.276 56.9579 105.818 60.858 103.79C60.858 103.79 61.7294 101.311 62.8437 99.9041C64.1509 101.311 65.3438 102.911 69.3438 103.604C79.3011 105.333 86.4012 109.369 91.7084 111.454C89.8727 109.876 88.7084 107.54 88.7084 104.933C88.7084 100.19 92.5584 96.3398 97.3014 96.3398C102.044 96.3398 105.88 100.176 105.894 104.911" fill="#03B2E2"/>
<path fill-rule="evenodd" clip-rule="evenodd" d="M138.146 74.9614C138.146 74.9614 137.538 75.2614 136.588 75.7329L124.995 81.5829C124.41 87.333 122.917 92.5831 120.988 96.9474C117.71 104.383 119.388 109.483 121.502 112.526C125.124 108.819 127.195 105.455 127.195 105.455L133.703 108.833C131.738 112.769 129.545 115.598 127.853 117.483C128.438 117.705 129.031 117.891 129.631 118.012C133.474 118.941 136.395 118.212 139.874 116.376C139.874 116.376 149.567 103.326 151.253 81.9329C151.253 81.7258 138.146 74.9614 138.146 74.9614ZM135.503 86.1759L138.546 86.7759C138.36 87.8616 138.146 88.9473 137.917 90.0259L134.874 89.4259C135.117 88.3473 135.317 87.2616 135.503 86.1759ZM134.145 92.4045L137.074 93.4545C136.774 94.5188 136.453 95.576 136.11 96.626L133.195 95.5831C133.538 94.526 133.86 93.4688 134.145 92.4045ZM129.788 85.0401L132.938 85.6687C132.753 86.7544 132.545 87.8402 132.31 88.9188L129.053 88.2687C129.338 87.1902 129.574 86.1116 129.788 85.0401ZM128.56 100.369L125.438 98.876C125.924 97.8689 126.381 96.8617 126.788 95.8546L129.817 97.2975C129.424 98.3332 129.01 99.3546 128.56 100.369ZM127.667 93.5974C128.053 92.5474 128.395 91.4974 128.703 90.4545L131.674 91.5188C131.381 92.5831 131.074 93.6474 130.731 94.6974L127.667 93.5974ZM133.724 102.826L130.924 101.498C131.374 100.483 131.795 99.4618 132.188 98.426L134.995 99.7689C134.595 100.797 134.174 101.819 133.724 102.826ZM139.231 105.455L136.088 103.955C136.538 102.94 136.967 101.926 137.36 100.898L140.567 102.426C140.146 103.448 139.71 104.455 139.231 105.455ZM142.11 98.7832L138.574 97.5117C138.924 96.4617 139.238 95.4046 139.538 94.3403L143.124 95.626C142.817 96.6832 142.481 97.7403 142.11 98.7832ZM144.467 91.3259L140.481 90.5331C140.717 89.4545 140.924 88.3759 141.11 87.283L145.146 88.083C144.946 89.1688 144.724 90.2474 144.467 91.3259Z" fill="#F8991D"/>
<path fill-rule="evenodd" clip-rule="evenodd" d="M150.974 67.0188C150.881 66.2402 150.774 65.433 150.645 64.5973C148.695 51.8329 142.438 32.604 122.816 16.9609L116.93 48.5971L117.695 49.8114C120.538 54.3829 122.466 59.0615 123.666 63.6902C123.916 64.6688 124.138 65.6473 124.331 66.6188C125.088 70.5045 125.352 74.3332 125.231 77.9975L138.031 71.2474L151.459 78.3118C151.481 77.4261 151.502 76.5261 151.502 75.6118C151.502 73.5975 151.417 70.6403 150.974 67.0188ZM140.481 49.8543L137.274 51.2757C136.838 50.2614 136.359 49.2614 135.866 48.2828L139.045 46.8685C139.552 47.8471 140.024 48.84 140.481 49.8543ZM135.545 40.5041C136.145 41.4256 136.731 42.3684 137.281 43.3256L134.159 45.1113C133.602 44.1542 133.031 43.2113 132.423 42.2827L135.545 40.5041ZM134.888 52.34L131.952 53.64C131.502 52.6329 131.038 51.6329 130.538 50.6471L133.466 49.3471C133.974 50.3257 134.438 51.3257 134.888 52.34ZM130.152 43.5827C130.752 44.5042 131.331 45.4471 131.881 46.4042L129.131 47.9757C128.588 47.0114 128.038 46.0613 127.459 45.1256L130.152 43.5827ZM123.952 50.9328C123.402 49.9543 122.83 49.0114 122.238 48.0971L125.181 46.4185C125.759 47.3542 126.323 48.3114 126.859 49.2757L123.952 50.9328ZM125.102 53.0686L128.152 51.7114C128.638 52.6972 129.116 53.6972 129.559 54.7043L126.523 56.0615C126.073 55.0329 125.595 54.0329 125.102 53.0686ZM127.666 58.3329L130.652 57.3329C131.059 58.3544 131.431 59.3901 131.788 60.4401L128.759 61.4544C128.431 60.3901 128.059 59.3472 127.666 58.3329ZM130.573 67.0116C130.352 65.9116 130.095 64.8402 129.809 63.7902L132.595 63.0187C132.902 64.0759 133.188 65.1473 133.438 66.2188L130.573 67.0116ZM133.145 56.4972L136.166 55.4829C136.552 56.5115 136.909 57.5544 137.238 58.6115L134.266 59.6115C133.916 58.5615 133.538 57.5186 133.145 56.4972ZM135.966 65.5259C135.709 64.4473 135.424 63.383 135.124 62.3259L138.066 61.5044C138.345 62.5759 138.595 63.6473 138.816 64.733L135.966 65.5259ZM138.652 54.6472L141.852 53.5686C142.252 54.5972 142.631 55.6329 142.966 56.6901L139.724 57.7758C139.388 56.7186 139.031 55.6758 138.652 54.6472ZM141.345 64.0402C141.124 62.9544 140.874 61.8759 140.595 60.8116L143.917 59.8901C144.202 60.9544 144.467 62.0259 144.695 63.1116L141.345 64.0402Z" fill="#03B2E2"/>
<path fill-rule="evenodd" clip-rule="evenodd" d="M154.824 150.312C153.874 150.669 152.86 150.941 151.788 151.126C147.746 151.819 142.931 151.341 137.86 150.076C128.552 147.762 118.438 142.826 110.881 137.762C110.466 137.49 110.059 137.212 109.652 136.926C108.759 136.312 107.866 135.69 106.988 135.062C105.995 134.362 105.016 133.655 104.038 132.94C103.916 132.862 103.802 132.776 103.688 132.69C99.1877 129.412 94.8234 126.083 90.4733 123.104C82.7232 117.783 75.0517 113.54 66.873 112.576C58.7586 111.611 51.9799 112.411 45.7155 114.619C41.094 116.254 36.744 118.654 32.3511 121.69C31.4653 122.304 30.5796 122.94 29.6867 123.604C28.9081 124.176 28.1296 124.769 27.351 125.383C26.5581 125.997 25.7652 126.633 24.9581 127.283C24.2152 127.883 23.4795 128.497 22.7295 129.126L22.7438 129.14C23.6009 128.619 24.4581 128.119 25.3224 127.647C26.2724 127.14 27.2296 126.662 28.2081 126.219C29.1724 125.776 30.1582 125.376 31.1582 125.012C32.3368 124.583 33.5296 124.212 34.7582 123.897C39.3297 122.733 44.3227 122.376 50.0227 123.076C57.3657 123.983 63.8729 127.147 70.3587 131.297C72.923 132.947 75.4945 134.74 78.1088 136.619C79.2803 137.462 80.466 138.319 81.6589 139.183C82.9518 140.112 84.2661 141.048 85.5875 141.983C86.7232 142.776 87.8733 143.569 89.0447 144.355C89.5161 144.676 89.9947 144.99 90.4733 145.312C91.9447 146.169 93.0876 146.962 94.3019 147.726C94.8805 148.076 95.4519 148.419 96.0305 148.755C126.802 165.691 149.038 157.898 156.867 149.769C156.181 149.955 155.488 150.133 154.824 150.312ZM60.78 117.376C56.98 116.497 53.0513 116.226 48.9584 116.79L55.2085 114.511C58.18 114.176 62.2872 114.654 64.7658 115.454L60.78 117.376ZM80.7374 126.14C77.366 124.033 73.9516 122.119 70.473 120.612L74.2302 119.147C77.5303 120.754 80.7589 122.662 83.9804 124.719L80.7374 126.14ZM100.773 139.498C97.7305 137.519 94.7162 135.433 91.7162 133.376C91.1447 132.976 90.559 132.576 89.9804 132.183L93.2091 130.819C93.2662 130.862 93.3305 130.897 93.3876 130.94C96.8948 133.347 100.402 135.797 103.966 138.076L100.773 139.498ZM119.617 149.626C116.288 148.369 113.059 146.783 109.895 145.005L113.031 143.419C116.288 145.162 119.631 146.662 123.081 147.755L119.617 149.626Z" fill="#F8991D"/>
<path fill-rule="evenodd" clip-rule="evenodd" d="M17.8792 61.4622L17.8578 61.5265C17.5363 62.5551 17.2649 63.6051 17.0006 64.6551H16.9863C17.2435 63.598 17.5221 62.5551 17.8363 61.5194C17.8435 61.4979 17.8506 61.4765 17.8578 61.4551H17.8792V61.4622Z" fill="#239ED4"/>
<path fill-rule="evenodd" clip-rule="evenodd" d="M19.9508 55.6473C19.9508 55.6473 19.9365 55.683 19.9293 55.7044C19.5008 56.7044 19.1222 57.7187 18.7722 58.7402C18.765 58.7616 18.7579 58.7759 18.7507 58.7973H18.7222C18.7222 58.7973 18.7365 58.7545 18.7436 58.733C19.1007 57.7116 19.4865 56.6902 19.9008 55.6973C19.9079 55.6759 19.915 55.6616 19.9222 55.6401H19.9508V55.6473Z" fill="#239ED4"/>
<path fill-rule="evenodd" clip-rule="evenodd" d="M22.6795 49.8328C22.6795 49.8328 22.658 49.8685 22.6509 49.89C22.1509 50.84 21.658 51.8114 21.2009 52.7972C21.2009 52.8186 21.1794 52.84 21.1723 52.8614H21.1509C21.1509 52.8614 21.1723 52.8114 21.1795 52.79C21.6366 51.8114 22.1223 50.8328 22.6366 49.8828C22.6438 49.8614 22.658 49.8471 22.6652 49.8257H22.6795V49.8328Z" fill="#239ED4"/>
<path fill-rule="evenodd" clip-rule="evenodd" d="M25.9223 44.4687C25.308 45.3687 24.7295 46.283 24.1723 47.2187L24.1509 47.2044C24.708 46.2687 25.2866 45.3544 25.8866 44.4473L25.9223 44.4687Z" fill="#239ED4"/>
<path fill-rule="evenodd" clip-rule="evenodd" d="M60.8867 13.2886C59.4009 12.5315 57.9723 11.6529 56.6223 10.6886C56.0366 10.2671 55.4723 9.83857 54.9151 9.38142L39.1864 20.5244L39.1221 25.2245L48.2865 26.3245L47.7936 33.6675L60.8867 13.2886ZM84.4013 15.9529C84.1156 16.0244 83.8298 16.0887 83.5441 16.1601C81.1727 16.6887 78.7083 16.9672 76.1797 16.9672C75.9512 16.9672 75.7297 16.9672 75.5083 16.9672L74.9011 26.9317C75.2583 26.9317 75.6083 26.9174 75.9583 26.9174C80.4512 26.9174 84.7941 27.5245 88.9299 28.6603L84.4013 15.9601V15.9529ZM101.623 5.32422C100.873 6.18852 97.7943 9.45999 97.1015 10.0243C99.9301 12.46 115.002 26.2031 117.437 28.6531L120.045 14.6315C114.58 10.7886 107.966 7.63854 101.623 5.32422Z" fill="#F8991D"/>
<path fill-rule="evenodd" clip-rule="evenodd" d="M57.1015 6.5748C56.2157 5.73908 55.3872 4.84621 54.6157 3.90334C61.4515 1.86045 68.6874 0.767578 76.1803 0.767578C83.6733 0.767578 90.9162 1.86759 97.752 3.90334C96.9877 4.84621 96.152 5.73908 95.2591 6.5748C94.352 7.4391 93.3806 8.23911 92.3591 8.96769C91.2162 9.78913 90.0091 10.5177 88.7519 11.1606C86.7233 12.1892 84.5447 12.982 82.2733 13.4892C80.3161 13.9249 78.2732 14.1606 76.1803 14.1606C74.0874 14.1606 72.0517 13.932 70.1016 13.4892C67.8159 12.982 65.6516 12.1892 63.623 11.1606C62.3587 10.5177 61.1587 9.78199 60.0158 8.96769C58.9944 8.23911 58.0229 7.4391 57.1086 6.5748" fill="#FEDA00"/>
<path fill-rule="evenodd" clip-rule="evenodd" d="M50.6437 5.20312C50.7008 5.27455 50.7508 5.3317 50.7722 5.36027C51.1722 5.81742 51.5794 6.26743 52.0008 6.70315L39.1864 14.639L39.1221 10.4675C42.9293 8.2746 46.4507 6.71029 50.6437 5.21027" fill="#FEDA00"/>
<path fill-rule="evenodd" clip-rule="evenodd" d="M54.8296 31.711L64.194 14.7607C65.6869 15.3322 67.2369 15.7965 68.8226 16.1536C69.7512 16.3608 70.7012 16.5322 71.6584 16.6608L70.5512 27.2038C64.9726 27.8181 59.6868 29.3752 54.8296 31.711Z" fill="#FEDA00"/>
<path fill-rule="evenodd" clip-rule="evenodd" d="M114.359 45.5689C109.309 39.1617 102.695 34.0474 95.0949 30.8045L87.759 14.9185C89.0019 14.4614 90.2091 13.9328 91.3805 13.3399C92.2734 12.8828 93.1448 12.3899 93.9948 11.8613C100.402 19.0471 112.081 31.383 116.117 35.9831L114.359 45.5689Z" fill="#FEDA00"/>
<path fill-rule="evenodd" clip-rule="evenodd" d="M78.8868 115.705C78.8868 115.705 78.8513 115.727 78.8301 115.741C78.8443 115.727 78.8584 115.712 78.8797 115.698H78.8868" fill="#34A2D7"/>
</svg>
