<svg width="99" height="106" viewBox="0 0 99 106" fill="none" xmlns="http://www.w3.org/2000/svg">
<g clip-path="url(#clip0_2573_40639)">
<rect width="99" height="106" fill="#06B2E3"/>
<path d="M21.0884 78.6709V84.3786C21.0884 85.3299 20.79 86.0773 20.2069 86.6209C19.6101 87.1781 18.81 87.4499 17.7793 87.4499C16.7486 87.4499 15.9756 87.1781 15.3789 86.6481C14.7822 86.1181 14.4838 85.3842 14.4703 84.4465V78.6845H16.2469V84.3922C16.2469 84.9629 16.3825 85.3706 16.6537 85.6288C16.9249 85.8871 17.3047 86.023 17.7793 86.023C18.7829 86.023 19.2847 85.493 19.2982 84.4465V78.6845H21.0884V78.6709Z" fill="white"/>
<path d="M29.5644 87.3276H27.7878L24.3161 81.6335V87.3276H22.5395V78.6709H24.3161L27.7878 84.3786V78.6709H29.5644V87.3276Z" fill="white"/>
<path d="M34.3381 84.3105H31.002V82.9243H34.3381V84.3105Z" fill="white"/>
<path d="M42.8684 87.3276H41.0783V83.6176H37.6065V87.3276H35.8299V78.6709H37.6065V82.1771H41.0783V78.6709H42.8684V87.3276Z" fill="white"/>
<path d="M49.4051 85.5473H46.2859L45.6892 87.3276H43.7906L47.0047 78.6709H48.6592L51.8869 87.3276H49.9883L49.3915 85.5473H49.4051ZM46.7606 84.1068H48.9169L47.832 80.8724L46.7606 84.1068Z" fill="white"/>
<path d="M52.7006 87.3276V78.6709H55.7248C56.7691 78.6709 57.5692 78.8747 58.1117 79.2689C58.6541 79.6765 58.9254 80.2609 58.9254 81.0355C58.9254 81.4568 58.8169 81.8373 58.5999 82.1499C58.3829 82.476 58.0845 82.7071 57.6913 82.8565C58.1388 82.9653 58.4778 83.1963 58.7355 83.5224C58.9932 83.8486 59.1152 84.2699 59.1152 84.7591C59.1152 85.5881 58.844 86.2268 58.3151 86.6481C57.7862 87.0829 57.0267 87.3004 56.0503 87.3004H52.687L52.7006 87.3276ZM54.4771 82.2994H55.7926C56.6877 82.2858 57.1352 81.9188 57.1352 81.2258C57.1352 80.8317 57.0267 80.5463 56.7962 80.3832C56.5656 80.2065 56.213 80.125 55.7248 80.125H54.4771V82.313V82.2994ZM54.4771 83.5632V85.9006H55.9961C56.4165 85.9006 56.7419 85.8055 56.9725 85.6017C57.203 85.3978 57.3251 85.126 57.3251 84.7727C57.3251 83.9845 56.9182 83.5768 56.091 83.5632H54.4636H54.4771Z" fill="white"/>
<path d="M62.3564 87.3276H60.5663V78.6709H62.3564V87.3276Z" fill="white"/>
<path d="M70.3307 80.1114H67.6862V87.3276H65.9096V80.1114H63.2922V78.6709H70.3307V80.1114Z" fill="white"/>
<path d="M75.5112 85.5473H72.3921L71.7954 87.3276H69.8967L73.1108 78.6709H74.7654L77.993 87.3276H76.0944L75.4977 85.5473H75.5112ZM72.8667 84.1068H75.023L73.9381 80.8724L72.8667 84.1068Z" fill="white"/>
<path d="M84.5976 80.1114H81.9531V87.3276H80.1765V80.1114H77.5591V78.6709H84.5976V80.1114Z" fill="white"/>
<path d="M40.468 73.2757C42.7328 70.1908 49.2966 66.6982 55.657 66.6982C62.0174 66.6982 69.2051 70.3947 71.8767 68.3426C71.8767 68.3426 69.0017 70.8159 63.2515 70.8159C57.5014 70.8159 55.2502 67.9349 51.3444 67.9349C47.4387 67.9349 43.1396 71.0198 41.4851 73.697L40.4544 73.2893L40.468 73.2757Z" fill="white"/>
<path d="M60.7969 66.2772C60.7969 66.2772 62.6413 65.2444 63.6719 63.1923C64.7026 61.1403 67.3607 57.838 69.8289 55.9897C69.8289 55.9897 66.9539 65.0405 63.8754 65.4482C63.8754 65.4482 63.4685 65.6521 64.2822 65.6521C65.1095 65.4482 69.0017 64.2115 70.4392 64.0077C71.8767 63.8038 75.1587 62.9749 75.9859 62.1595C76.8132 61.3305 77.22 61.548 77.22 61.548C77.22 61.548 73.5313 67.7177 66.7504 67.7177C66.9539 67.31 63.6719 67.1062 60.7969 66.2772Z" fill="white"/>
<path d="M68.7982 63.1921C68.7982 63.1921 69.4085 62.1593 69.6255 60.3111C69.8289 58.4629 70.8596 54.3452 74.1415 49.8198C74.1415 49.8198 74.5484 57.0224 71.063 61.3439C71.063 61.3439 70.8596 61.9555 71.2664 61.5478C71.6733 61.1401 74.1415 58.4629 79.0644 55.1742C79.0644 55.1742 81.736 53.1221 81.736 52.497C81.736 52.2932 79.6882 62.3767 68.7982 63.1921Z" fill="white"/>
<path d="M75.1586 56.4106C75.1586 56.4106 75.362 55.1739 75.362 54.3586C75.362 53.3257 74.9552 50.037 74.9552 48.5965C74.9552 47.156 75.1586 44.275 76.1893 42.4268C76.1893 42.4268 76.1893 44.0711 76.5962 44.9001C77.003 45.7291 77.4234 48.5965 77.4234 49.0178C77.4234 49.4391 77.4234 51.8988 76.5962 53.1355C76.5962 53.1355 77.003 52.9316 77.6268 51.8988C78.2371 50.866 79.4712 49.2216 81.3156 47.1696C83.16 45.3214 83.7838 43.4732 83.7838 43.4732C83.7838 43.4732 84.1907 46.7619 81.736 50.2545C79.2678 53.747 78.2507 53.1355 76.8131 54.576C76.8131 54.576 75.3756 56.4242 75.1722 56.4242" fill="white"/>
<path d="M79.0644 48.3795C79.0644 48.3795 79.0644 46.3274 78.6575 45.7023C78.2507 45.0907 75.9859 40.9731 76.3927 36.04C76.3927 36.04 76.7996 35.6323 77.4234 37.6843C78.0337 39.7364 79.0644 40.3615 79.4712 42.2097C79.8781 44.2618 79.8781 45.0907 79.8781 45.0907C79.8781 45.0907 80.0815 45.2946 80.0815 45.0907C80.0815 44.8869 80.2849 42.2097 81.519 39.7364C82.7532 37.263 84.1907 35.0072 83.9873 33.3628C83.9873 33.3628 84.5975 33.3628 84.5975 36.04C84.3941 38.7172 83.7703 43.2425 79.0508 48.3795" fill="white"/>
<path d="M80.285 40.3615C80.285 40.3615 79.4577 38.5133 78.8474 37.8882C78.2372 37.2766 74.3314 31.7184 73.9246 29.2451C73.9246 29.2451 74.3314 29.0413 74.5348 29.6528C74.9417 30.2643 76.7996 32.1261 77.2065 32.33C77.6133 32.5338 79.4577 34.5995 79.6747 36.8554C79.6747 36.8554 79.8781 37.0592 79.4713 33.3628C79.0644 29.6664 80.7054 27.1931 79.4713 24.7197C79.4713 24.7197 81.3157 24.9236 82.3463 32.5338C82.3463 32.5338 82.3463 35.211 80.9088 38.4997C80.9088 38.7036 80.502 40.3479 80.2985 40.3479" fill="white"/>
<path d="M78.8474 32.126C78.8474 32.126 77.4098 30.6855 76.1757 29.8565C74.9416 29.245 71.2529 25.535 70.629 22.8578C70.629 22.8578 70.8324 22.654 72.0666 24.0945C72.8938 25.3312 73.9109 24.706 76.5826 28.0083C76.5826 28.0083 76.9894 28.8373 77.1929 28.6199C77.3963 28.6199 77.1929 27.7909 77.1929 27.7909C77.1929 27.7909 76.5826 25.7388 76.5826 24.9099C76.5826 24.0809 75.3485 20.1806 75.1451 19.7729C75.1451 19.7729 78.8338 21.825 79.2542 27.5871C79.2542 27.5871 79.0508 31.9086 78.8474 32.1124" fill="white"/>
<path d="M75.7689 25.9562C75.7689 25.9562 75.9723 21.0231 69.2051 18.5498C69.2051 18.5498 71.4699 23.279 73.3143 24.3119C75.1586 25.3447 75.7825 25.9562 75.7825 25.9562" fill="white"/>
<path d="M58.5321 73.2757C56.2673 70.1908 49.7034 66.6982 43.343 66.6982C36.9826 66.6982 29.7949 70.3947 27.1233 68.3426C27.1233 68.3426 29.9984 70.8159 35.7485 70.8159C41.4986 70.8159 43.7499 67.9349 47.6556 67.9349C51.5614 67.9349 55.8604 71.0198 57.5149 73.697L58.5456 73.2893L58.5321 73.2757Z" fill="white"/>
<path d="M37.9998 66.2772C37.9998 66.2772 36.1554 65.2444 35.1247 63.1923C34.094 61.1403 31.6393 57.838 28.9677 55.9897C28.9677 55.9897 31.8428 65.0405 34.9213 65.4482C34.9213 65.4482 35.3281 65.6521 34.5144 65.6521C33.6871 65.4482 29.795 64.2115 28.3574 64.0077C26.9199 63.8038 23.638 62.9749 22.8107 62.1595C21.9834 61.3305 21.5766 61.548 21.5766 61.548C21.5766 61.548 25.2654 67.7177 32.0462 67.7177C32.0462 67.31 35.3281 67.1062 37.9998 66.2772Z" fill="white"/>
<path d="M30.2018 63.1921C30.2018 63.1921 29.5915 62.1593 29.3745 60.3111C29.1711 58.4629 28.1404 54.3452 24.8585 49.8198C24.8585 49.8198 24.4516 57.0224 27.937 61.3439C27.937 61.3439 28.1404 61.9555 27.7336 61.5478C27.3267 61.1401 24.8585 58.4629 19.9356 55.1742C19.9356 55.1742 17.264 53.1221 17.264 52.497C17.264 52.2932 19.1084 62.3767 30.2018 63.1921Z" fill="white"/>
<path d="M23.8414 56.4106C23.8414 56.4106 23.638 55.1739 23.638 54.3586C23.638 53.3257 24.0448 50.037 24.0448 48.5965C24.0448 47.156 23.8414 44.275 22.8107 42.4268C22.8107 42.4268 22.8107 44.0711 22.4039 44.9001C21.997 45.7291 21.5766 48.5965 21.5766 49.0178C21.5766 49.4391 21.5766 51.8988 22.4039 53.1355C22.4039 53.1355 21.997 52.9316 21.3732 51.8988C20.7629 50.866 19.5288 49.2216 17.6844 47.1696C15.84 45.3214 15.2162 43.4732 15.2162 43.4732C15.2162 43.4732 14.8093 46.7619 17.264 50.2545C19.7322 53.747 20.7493 53.1355 22.1869 54.576C21.9835 54.576 23.6244 56.4242 23.8278 56.4242" fill="white"/>
<path d="M19.9356 48.3795C19.9356 48.3795 19.9356 46.3274 20.3425 45.7023C20.7493 45.0907 23.0141 40.9731 22.5937 36.04C22.5937 36.04 22.1869 35.6323 21.563 37.6843C20.9528 39.7364 19.9221 40.3615 19.5152 42.2097C19.1084 44.2618 19.1084 45.0907 19.1084 45.0907C19.1084 45.0907 18.9049 45.2946 18.9049 45.0907C18.9049 44.8869 18.7015 42.2097 17.4674 39.7364C16.2333 37.263 14.7958 35.0072 14.9992 33.3628C14.9992 33.3628 14.3889 33.3628 14.3889 36.04C14.3889 38.7172 15.2162 43.2425 19.9356 48.3795Z" fill="white"/>
<path d="M18.7151 40.3613C18.7151 40.3613 19.5423 38.5131 20.1526 37.888C20.7629 37.2764 24.6686 31.7182 25.0755 29.2449C25.0755 29.2449 24.6686 29.041 24.4652 29.6526C24.0583 30.2641 22.214 32.1259 21.7935 32.3298C21.1833 32.7374 19.1219 34.8031 19.1219 37.059C19.1219 37.059 18.9185 37.2628 19.3253 33.5664C19.7322 29.87 18.0912 27.3967 19.3253 24.9233C19.3253 24.9233 17.4809 25.1272 16.4503 32.7374C16.4503 32.7374 16.4503 35.4146 17.8878 38.7033C17.8878 38.7033 18.4981 40.3477 18.7151 40.3477" fill="white"/>
<path d="M20.1526 32.126C20.1526 32.126 21.5901 30.6855 22.8243 29.8565C24.0584 29.245 27.7471 25.535 28.371 22.8578C28.371 22.8578 28.1675 22.654 26.9334 24.0945C26.1062 25.3312 25.0891 24.706 22.4174 28.0083C22.4174 28.0083 22.0106 28.8373 21.8071 28.6199C21.6037 28.6199 22.0106 27.7909 22.0106 27.7909C22.0106 27.7909 22.6208 25.7388 22.6208 24.9099C22.6208 24.0809 23.8549 20.1806 24.0584 19.7729C24.0584 19.7729 20.3696 21.825 19.9492 27.5871C19.7458 27.5871 19.9492 31.9086 20.1526 32.1124" fill="white"/>
<path d="M23.2311 25.9562C23.2311 25.9562 23.0277 21.0231 29.7949 18.5498C29.7949 18.5498 27.5437 23.279 25.6857 24.3119C23.8414 25.3447 23.2175 25.9562 23.2175 25.9562" fill="white"/>
<path d="M49.5 18.998C36.3181 18.998 25.6315 28.4837 25.6315 40.1845C25.6315 51.8852 36.3181 61.3709 49.5 61.3709C62.6819 61.3709 73.3685 51.8852 73.3685 40.1845C73.3685 28.4837 62.6819 18.998 49.5 18.998ZM51.914 32.4927C52.0225 32.615 52.4293 33.1314 53.0125 33.8924C52.4429 33.3896 51.697 33.077 50.8697 33.077C49.0796 33.077 47.6421 34.5311 47.6421 36.3114C47.6421 38.0916 49.0932 39.5457 50.8697 39.5457C51.358 39.5457 51.8191 39.437 52.2395 39.2332C51.914 39.4642 51.7241 39.5865 51.7241 39.5865C51.7241 39.5865 50.5578 40.4834 48.6456 39.5186C47.8862 39.138 46.4893 38.3634 45.0654 37.5752C46.4622 34.9932 47.6421 32.778 47.737 32.547C48.9982 29.9922 50.0289 30.0601 51.914 32.4791V32.4927ZM43.7906 39.967C45.54 40.9183 47.0725 41.7337 47.0725 41.7337C47.0725 41.7337 47.5471 41.8696 47.5471 42.6986L47.4658 46.1639C44.3737 46.2047 41.9326 46.2319 41.7156 46.2319C40.4273 46.2319 40.8613 45.3486 41.2003 44.7506C41.8513 43.5547 42.8141 41.788 43.7906 39.967ZM52.6599 44.4788C52.6599 44.4788 52.5514 42.6306 54.1924 41.6657L57.3251 39.5593C59.5899 42.5491 61.5156 45.1039 61.7055 45.3622C61.8954 45.6339 61.8682 45.9737 61.163 45.9737C60.6341 45.9737 57.0945 46.028 52.687 46.0824L52.6599 44.4652V44.4788ZM53.1617 38.6216C53.7584 38.0373 54.1245 37.2219 54.1245 36.325C54.1245 35.8086 54.0025 35.3057 53.7855 34.8709C54.2873 35.5232 54.8433 36.257 55.44 37.0452C54.5992 37.6296 53.8126 38.1732 53.1752 38.6216H53.1617ZM29.7814 40.6601C29.7814 31.5142 38.3524 24.0942 48.9982 23.8904C47.737 26.2006 44.9433 31.3239 42.3666 36.0668C41.363 35.496 40.6714 35.1019 40.6714 35.1019C40.6714 35.1019 39.1525 34.4768 38.5151 35.4416C38.5151 35.4416 37.7285 36.5424 38.827 37.2219C39.1525 37.4257 40.0069 37.9014 41.0511 38.4721C38.7999 42.6034 36.9691 45.9737 36.9013 46.1096C35.735 48.4742 37.4166 49.738 40.1425 49.7788C40.4273 49.7788 43.4651 49.7516 47.398 49.7109L47.2081 57.3483C37.403 56.397 29.7678 49.3032 29.7678 40.6737L29.7814 40.6601ZM52.9176 57.1716L52.7684 49.6565C58.3151 49.6022 64.0381 49.5478 66.1402 49.5342C63.2515 53.4888 58.4914 56.3291 52.9176 57.1716ZM61.38 36.8414L63.6991 35.2921C63.6991 35.2921 65.0688 34.3273 64.3771 33.2401C63.6991 32.1393 62.6006 32.2073 61.0952 33.1721C60.7969 33.3624 60.2408 33.7293 59.5492 34.205L52.6056 24.0942C61.9632 25.3852 69.1102 32.316 69.1102 40.6601C69.1102 42.6714 68.6897 44.6011 67.9303 46.3814L61.38 36.8414Z" fill="white"/>
</g>
<defs>
<clipPath id="clip0_2573_40639">
<rect width="99" height="106" fill="white"/>
</clipPath>
</defs>
</svg>
